<svg version="1.1" viewBox="0.0 0.0 600.0 300.0" fill="none" stroke="none" stroke-linecap="square" stroke-miterlimit="10" xmlns:xlink="http://www.w3.org/1999/xlink" xmlns="http://www.w3.org/2000/svg"><clipPath id="p.0"><path d="m0 0l600.0 0l0 300.0l-600.0 0l0 -300.0z" clip-rule="nonzero"/></clipPath><g clip-path="url(#p.0)"><path fill="#000000" fill-opacity="0.0" d="m0 0l600.0 0l0 300.0l-600.0 0z" fill-rule="evenodd"/><path fill="#663399" d="m0 0l600.0 0l0 300.0l-600.0 0z" fill-rule="evenodd"/><path fill="#000000" fill-opacity="0.0" d="m0 59.825497l600.0 0l0 180.34645l-600.0 0z" fill-rule="evenodd"/><path fill="#f3f3f3" d="m56.42572 150.38274l0 -94.265625l47.203125 0q7.90625 0 14.046875 2.484375q6.15625 2.46875 10.328125 6.781254q4.171875 4.296875 6.28125 10.03125q2.125 5.71875 2.125 12.078125q0 6.359375 -2.125 12.015625q-2.109375 5.65625 -6.28125 9.96875q-4.171875 4.296875 -10.328125 6.78125q-6.140625 2.46875 -14.046875 2.46875l-22.90625 0l0 31.65625l-24.296875 0zm43.953125 -52.859375q4.9375 0 8.109375 -2.609375q3.1875 -2.609375 3.1875 -7.421875q0 -4.953125 -3.1875 -7.5625q-3.171875 -2.609375 -8.109375 -2.609375l-19.65625 0l0 20.203125l19.65625 0zm83.10083 52.859375l0 -94.265625l24.296875 0l0 73.0625l37.875 0l0 21.203125l-62.171875 0zm155.59882 1.703125q-11.453125 0 -19.859375 -2.96875q-8.40625 -2.96875 -13.921875 -8.265625q-5.515625 -5.3125 -8.203125 -12.578125q-2.671875 -7.28125 -2.671875 -16.046875l0 -56.10938l24.734375 0l0 55.26563q0 8.46875 4.9375 13.84375q4.953125 5.375 14.984375 5.375q9.75 0 14.765625 -5.375q5.015625 -5.375 5.015625 -13.84375l0 -55.26563l24.59375 0l0 55.968754q0 8.765625 -2.6875 16.109375q-2.6875 7.34375 -8.203125 12.65625q-5.5 5.296875 -13.84375 8.265625q-8.328125 2.96875 -19.640625 2.96875zm180.19165 -1.703125l0 -61.34375l-23.890594 61.34375l-10.734375 0l-23.75 -61.34375l0 61.34375l-24.296875 0l0 -94.265625l33.765625 0l19.65625 51.156254l19.78125 -51.156254l33.78122 0l0 94.265625l-24.3125 0z" fill-rule="nonzero"/><path fill="#f3f3f3" d="m54.810547 242.03073l0 -56.03125l23.515625 0q6.640625 0 12.171875 1.9375q5.546875 1.921875 9.578125 5.546875q4.03125 3.609375 6.296875 8.78125q2.28125 5.15625 2.28125 11.703125q0 6.5625 -2.28125 11.734375q-2.265625 5.15625 -6.296875 8.8125q-4.03125 3.65625 -9.578125 5.59375q-5.53125 1.921875 -12.09375 1.921875l-23.59375 0zm23.515625 -12.59375q3.6875 0 6.578125 -1.265625q2.90625 -1.265625 4.875 -3.359375q1.984375 -2.09375 3.03125 -4.90625q1.046875 -2.828125 1.046875 -5.9375q0 -3.265625 -0.96875 -6.03125q-0.953125 -2.78125 -2.890625 -4.875q-1.9375 -2.109375 -4.828125 -3.28125q-2.890625 -1.171875 -6.765625 -1.171875l-9.15625 0l0 30.828125l9.078125 0zm59.056488 12.59375l0 -56.03125l41.0625 0l0 12.609375l-26.625 0l0 8.734375l26.046875 0l0 12.59375l-26.046875 0l0 9.5l26.625 0l0 12.59375l-41.0625 0zm70.98009 0l0 -56.03125l41.0625 0l0 12.609375l-26.625 0l0 8.734375l26.046875 0l0 12.59375l-26.046875 0l0 22.09375l-14.4375 0zm70.392075 0l0 -56.03125l41.0625 0l0 12.609375l-26.625 0l0 8.734375l26.046875 0l0 12.59375l-26.046875 0l0 9.5l26.625 0l0 12.59375l-41.0625 0zm109.1051 0l-23.6875 -32.421875l0 32.421875l-14.4375 0l0 -56.03125l14.859375 0l22.6875 30.828125l0 -30.828125l14.53125 0l0 56.03125l-13.953125 0zm66.36725 1.015625q-8.578125 0 -14.578125 -2.4375q-6.0 -2.4375 -10.28125 -6.46875l7.640625 -10.84375q3.015625 3.03125 7.546875 5.21875q4.546875 2.171875 10.34375 2.171875q3.78125 0 5.875 -1.296875q2.109375 -1.296875 2.109375 -3.3125q0 -1.9375 -2.359375 -2.859375q-2.359375 -0.921875 -5.890625 -1.71875q-3.515625 -0.8125 -7.640625 -1.765625q-4.109375 -0.96875 -7.640625 -2.890625q-3.53125 -1.9375 -5.890625 -5.21875q-2.34375 -3.28125 -2.34375 -8.65625q0 -3.53125 1.46875 -6.765625q1.484375 -3.234375 4.328125 -5.65625q2.859375 -2.4375 7.015625 -3.90625q4.15625 -1.484375 9.53125 -1.484375q13.703125 0 22.765625 7.8125l-7.890625 10.34375q-3.53125 -2.9375 -7.859375 -4.359375q-4.328125 -1.4375 -8.515625 -1.4375q-3.203125 0 -4.625 1.140625q-1.421875 1.125 -1.421875 2.890625q0 1.765625 2.34375 2.6875q2.359375 0.921875 5.875 1.71875q3.53125 0.796875 7.609375 1.8125q4.078125 1.0 7.59375 2.9375q3.53125 1.921875 5.875 5.15625q2.359375 3.234375 2.359375 8.453125q0 4.1875 -1.5625 7.6875q-1.546875 3.484375 -4.484375 5.921875q-2.9375 2.421875 -7.3125 3.78125q-4.359375 1.34375 -9.984375 1.34375zm51.579956 -1.015625l0 -56.03125l41.0625 0l0 12.609375l-26.625 0l0 8.734375l26.046875 0l0 12.59375l-26.046875 0l0 9.5l26.625 0l0 12.59375l-41.0625 0z" fill-rule="nonzero"/></g></svg>